<svg width="90" height="91" viewBox="0 0 90 91" fill="none" xmlns="http://www.w3.org/2000/svg">
<rect y="0.5" width="90" height="90" rx="45" fill="#171717"/>
<path d="M45.5936 55.677H33.6897C33.2159 55.677 32.7874 55.3961 32.5993 54.9628C32.41 54.5283 32.4958 54.0236 32.8184 53.6772L35.5634 50.7202C34.3337 49.0013 33.6897 47.0288 33.6897 44.9635C33.6897 39.0556 39.0298 34.25 45.5936 34.25C52.1574 34.25 57.4975 39.0556 57.4975 44.9635C57.4975 50.8714 52.1574 55.677 45.5936 55.677ZM36.4193 53.2962H45.5936C50.8444 53.2962 55.1167 49.5584 55.1167 44.9635C55.1167 40.3698 50.8444 36.6308 45.5936 36.6308C40.3428 36.6308 36.0705 40.3698 36.0705 44.9635C36.0705 46.7931 36.7466 48.5347 38.0251 50.0012C38.4251 50.4607 38.4144 51.1476 38.0001 51.594L36.4193 53.2962Z" fill="white" fill-opacity="0.54"/>
</svg>
